<?xml version="1.0" encoding="utf-8"?>
<!-- Generator: Adobe Illustrator 22.1.0, SVG Export Plug-In . SVG Version: 6.00 Build 0)  -->
<svg version="1.1" id="Layer_1" xmlns="http://www.w3.org/2000/svg" xmlns:xlink="http://www.w3.org/1999/xlink" x="0px" y="0px"
	 viewBox="0 0 86.2 100" style="enable-background:new 0 0 86.2 100;" xml:space="preserve">
<style type="text/css">
	.st0{fill:#FFFFFF;}
</style>
<path class="st0" d="M41.9,0.3L1.7,17c-1,0.5-1.7,1.5-1.7,2.6v37.3C0,80.6,19.4,100,43.1,100s43.1-19.4,43.1-43.1V19.6
	c0-1.1-0.7-2.1-1.7-2.6L44.1,0.3C43.3-0.1,42.7-0.1,41.9,0.3z M80.5,56.9c0,20.6-16.8,37.5-37.5,37.5S5.5,77.6,5.5,56.9V21.5L43,5.9
	l37.5,15.6V56.9z M30.3,41.5v5.1c-2.7,0.6-4.8,3-4.8,6v12.4c0,3.4,2.8,6.2,6.2,6.2h22.9c3.4,0,6.2-2.8,6.2-6.2V52.5
	c0-2.9-2-5.4-4.8-6v-5.1c0-7-5.7-12.7-12.7-12.7S30.3,34.5,30.3,41.5z M54.9,65c0,0.3-0.2,0.6-0.6,0.6H31.6c-0.3,0-0.6-0.2-0.6-0.6
	V52.6c0-0.3,0.2-0.6,0.6-0.6h22.9c0.3,0,0.6,0.2,0.6,0.6V65H54.9z M50.1,41.5v4.8H35.9v-4.8c0-3.9,3.2-7.1,7.1-7.1
	S50.1,37.6,50.1,41.5z"/>
</svg>
