<?xml version="1.0" encoding="utf-8"?>
<!-- Generator: Adobe Illustrator 22.1.0, SVG Export Plug-In . SVG Version: 6.00 Build 0)  -->
<svg version="1.1" id="Layer_1" xmlns="http://www.w3.org/2000/svg" xmlns:xlink="http://www.w3.org/1999/xlink" x="0px" y="0px"
	 viewBox="0 0 100 100" style="enable-background:new 0 0 100 100;" xml:space="preserve">
<style type="text/css">
	.st0{fill:#CCCCCC;}
	.st1{fill:#FFFFFF;}
</style>
<title>icon-social-email1</title>
<g id="Facebook_Grey_1_" transform="translate(-7006 -3517)">
	<path id="Blue_1_" class="st0" d="M7011.5,3517h89c3,0,5.5,2.5,5.5,5.5v89c0,3-2.5,5.5-5.5,5.5h-89c-3,0-5.5-2.5-5.5-5.5v-89
		C7006,3519.5,7008.5,3517,7011.5,3517z"/>
	<path id="f_1_" class="st1" d="M7075,3617v-38.7h13l1.9-15.1H7075v-9.6c0-4.4,1.2-7.4,7.5-7.4h8v-13.5c-3.9-0.4-7.8-0.6-11.7-0.6
		c-11.5,0-19.4,7-19.4,20v11.1h-13v15.1h13v38.7H7075z"/>
</g>
</svg>
