<?xml version="1.0" encoding="utf-8"?>
<!-- Generator: Adobe Illustrator 22.1.0, SVG Export Plug-In . SVG Version: 6.00 Build 0)  -->
<svg version="1.1" id="Layer_1" xmlns="http://www.w3.org/2000/svg" xmlns:xlink="http://www.w3.org/1999/xlink" x="0px" y="0px"
	 viewBox="0 0 100 58.8" style="enable-background:new 0 0 100 58.8;" xml:space="preserve">
<style type="text/css">
	.st0{fill:#FFFFFF;}
</style>
<path class="st0" d="M84.7,28.5c2.9-3.4,4.3-7.8,3.7-12.4C87.5,8.9,81.6,3.2,74.4,2.4c-4.2-0.5-8.4,0.8-11.6,3.3
	c-2.8-3-6.7-5.1-11-5.6c-5.1-0.6-10.2,1.1-14,4.4c-0.3,0.3-0.6,0.6-1,1c-2.3-1.7-4.9-2.8-7.8-3.1c-4.5-0.5-9,0.9-12.4,3.9
	c-3.4,3-5.3,7.3-5.3,11.8c0,3.8,1.4,7.5,3.8,10.3C6,32.7,0,41.7,0,51.7C0,53,1.1,54,2.4,54h16.5c-0.1,0.8-0.1,1.6-0.1,2.4
	c0,1.3,1.1,2.3,2.3,2.3h57.5c1.3,0,2.3-1.1,2.3-2.3c0-0.8,0-1.6-0.1-2.4h16.9c1.3,0,2.4-1.1,2.4-2.4C100,41.7,94,32.7,84.7,28.5z
	 M4.8,49.3c1-8.2,7-15.2,15.6-17.8c0.9-0.3,1.5-1,1.6-1.9c0.1-0.9-0.2-1.8-1-2.3c-3.1-2.1-4.9-5.5-4.9-9.2c0-3.2,1.4-6.2,3.7-8.3
	c2.4-2.1,5.5-3.1,8.7-2.8c2,0.2,3.9,1,5.5,2.3c-1.4,2.6-2.2,5.6-2.2,8.6c0,4.5,1.7,8.8,4.6,12C28,33.7,21.9,40.8,19.7,49.3H4.8z
	 M23.5,54.1c1-9.8,8.1-18.1,18.2-21.2c0.9-0.3,1.5-1,1.6-1.9c0.1-0.9-0.2-1.8-1-2.3c-3.6-2.5-5.8-6.5-5.8-10.9
	c0-3.7,1.6-7.3,4.4-9.8c2.8-2.5,6.5-3.7,10.3-3.3c6,0.7,10.8,5.5,11.6,11.4c0.6,5-1.5,9.8-5.7,12.6c-0.7,0.5-1.1,1.4-1,2.3
	c0.1,0.9,0.8,1.6,1.6,1.9C68,36,75.1,44.4,76.1,54.1H23.5z M80,49.3c-2.2-8.5-8.4-15.7-16.9-19.4c3.5-3.8,5.2-9,4.5-14.3
	c-0.3-2.2-1-4.2-2-6.1c2.3-1.9,5.3-2.8,8.3-2.5c5,0.6,9.2,4.6,9.8,9.6c0.5,4.2-1.3,8.3-4.8,10.7c-0.7,0.5-1.1,1.4-1,2.3
	c0.1,0.9,0.8,1.6,1.6,1.9c8.6,2.6,14.6,9.6,15.6,17.8H80z"/>
</svg>
