<?xml version="1.0" encoding="utf-8"?>
<!-- Generator: Adobe Illustrator 22.1.0, SVG Export Plug-In . SVG Version: 6.00 Build 0)  -->
<svg version="1.1" id="Layer_1" xmlns="http://www.w3.org/2000/svg" xmlns:xlink="http://www.w3.org/1999/xlink" x="0px" y="0px"
	 viewBox="0 0 100 100" style="enable-background:new 0 0 100 100;" xml:space="preserve">
<style type="text/css">
	.st0{fill:#FFFFFF;}
	.st1{fill:#CCCCCC;}
</style>
<title>icon-social-email1</title>
<g id="Symbol_1_1" transform="translate(-7046 -3517)">
	<circle id="Ellipse_58" class="st0" cx="7096" cy="3567" r="50"/>
	<g id="Pinterest_Grey_1_" transform="translate(7046 3517)">
		<path id="Path_12" class="st1" d="M50,0C22.4,0,0,22.3,0,49.9c0,20.6,12.6,39.1,31.8,46.6c-0.6-4.8-0.6-9.6,0.2-14.4
			c0.9-3.9,5.9-24.9,5.9-24.9c-1-2.3-1.5-4.9-1.5-7.4c0-7,4-12.1,9-12.1c3.4-0.1,6.3,2.7,6.4,6.1c0,0.3,0,0.6,0,0.9
			c0,4.3-2.7,10.7-4.1,16.7c-1,3.9,1.3,7.8,5.2,8.8c0.7,0.2,1.5,0.3,2.2,0.2c8.9,0,15.7-9.4,15.7-22.9c0.3-10.9-8.2-20-19.1-20.3
			c-0.6,0-1.2,0-1.9,0c-11.9-0.5-22,8.8-22.5,20.7c0,0.3,0,0.6,0,1c0,4.1,1.3,8.1,3.7,11.4c0.4,0.4,0.5,0.9,0.4,1.4
			c-0.4,1.6-1.2,5-1.4,5.7c-0.2,0.9-0.7,1.1-1.7,0.7C22,65.3,18.1,56.1,18.1,48.8c0-15.8,11.5-30.3,33-30.3
			C68.5,18.5,82,30.9,82,47.4c0,17.2-10.9,31.1-26,31.1c-4.6,0.2-8.9-2-11.5-5.7l-3,11.9c-1.5,4.6-3.6,9-6.2,13.1
			c26.4,8.2,54.3-6.6,62.5-33s-6.6-54.3-33-62.5C60,0.8,55,0,50,0z"/>
	</g>
</g>
</svg>
