<?xml version="1.0" encoding="utf-8"?>
<!-- Generator: Adobe Illustrator 22.1.0, SVG Export Plug-In . SVG Version: 6.00 Build 0)  -->
<svg version="1.1" id="Layer_1" xmlns="http://www.w3.org/2000/svg" xmlns:xlink="http://www.w3.org/1999/xlink" x="0px" y="0px"
	 viewBox="0 0 100 56.5" style="enable-background:new 0 0 100 56.5;" xml:space="preserve">
<style type="text/css">
	.st0{fill:#FFFFFF;}
</style>
<path class="st0" d="M98.8,5.5L77.4,0C77.2,0,76.9,0,76.7,0L55.2,5.5c-0.7,0.2-1.2,0.8-1.2,1.5v5.2l-4.2-1.1c-0.2-0.1-0.5-0.1-0.8,0
	l-3.1,0.8V7c0-0.7-0.5-1.3-1.2-1.5L23.3,0C23.1,0,22.8,0,22.6,0L1.2,5.5C0.5,5.7,0,6.3,0,7v31.5c0,0.7,0.5,1.3,1.2,1.5l21.4,5.5
	c0.1,0,0.3,0,0.4,0c0.1,0,0.3,0,0.4,0l3.1-0.8v4.9c0,0.7,0.5,1.3,1.2,1.5l21.4,5.5c0.1,0,0.3,0,0.4,0c0.1,0,0.3,0,0.4,0L71.3,51
	c0.7-0.2,1.2-0.8,1.2-1.5v-5.2l4.2,1.1c0.1,0,0.3,0,0.4,0c0.1,0,0.3,0,0.4,0l21.4-5.5c0.7-0.2,1.2-0.8,1.2-1.5V7
	C100,6.3,99.5,5.7,98.8,5.5z M14.4,15.2c0,0.5-0.3,0.9-0.8,1l-5.3,1.4c-0.7,0.2-1.3-0.3-1.3-1V7.2l7.4-1.9V15.2z M26.5,18v23.4
	L23,42.3V3.1l19.9,5.1v4.5l-15.2,3.9C27,16.7,26.5,17.3,26.5,18z M40.8,26.2c0,0.5-0.3,0.9-0.8,1l-5.3,1.4c-0.7,0.2-1.3-0.3-1.3-1
	v-9.3l7.4-1.9V26.2z M61,7.2l7.4-1.9v9.9c0,0.2-0.1,0.4-0.2,0.6L61,13.9V7.2z M69.3,48.3l-19.9,5.1V14.2l19.9,5.1V48.3z M96.9,37.3
	L77,42.3V3.1l19.9,5.1V37.3z"/>
</svg>
