<?xml version="1.0" encoding="utf-8"?>
<!-- Generator: Adobe Illustrator 22.1.0, SVG Export Plug-In . SVG Version: 6.00 Build 0)  -->
<svg version="1.1" id="Layer_1" xmlns="http://www.w3.org/2000/svg" xmlns:xlink="http://www.w3.org/1999/xlink" x="0px" y="0px"
	 viewBox="0 0 100 100" style="enable-background:new 0 0 100 100;" xml:space="preserve">
<style type="text/css">
	.st0{fill:#CCCCCC;}
	.st1{fill:#FFFFFF;}
</style>
<title>icon-social-email1</title>
<g id="Twitter_1_" transform="translate(-7086 -3517)">
	<g id="Dark_Blue_1_" transform="translate(7086 3517)">
		<circle id="Ellipse_1" class="st0" cx="50" cy="50" r="50"/>
	</g>
	<g id="Logo_FIXED_1_" transform="translate(7092.72 3525.601)">
		<path id="Path_14" class="st1" d="M34.1,67.8c18.8,0.1,34.2-15,34.3-33.8c0-0.2,0-0.3,0-0.5V32c2.4-1.7,4.4-3.8,6-6.2
			c-2.2,1-4.5,1.6-6.9,1.9c2.5-1.5,4.4-3.9,5.3-6.7c-2.4,1.4-5,2.4-7.7,2.9c-4.5-4.9-12.1-5.1-17-0.6c0,0,0,0,0,0
			c-2.4,2.3-3.8,5.5-3.8,8.8c0,0.9,0.1,1.9,0.3,2.8c-9.7-0.5-18.7-5.1-24.8-12.6c-1.1,1.8-1.6,4-1.6,6.1c0,4,2,7.8,5.4,10
			c-1.9-0.1-3.8-0.6-5.5-1.5v0.2c0,5.7,4.1,10.7,9.7,11.8c-1,0.3-2.1,0.4-3.2,0.4c-0.8,0-1.5-0.1-2.3-0.2c1.6,4.9,6.1,8.3,11.3,8.4
			c-4.3,3.4-9.6,5.2-15,5.2c-1,0-1.9-0.1-2.9-0.2C21.2,66,27.6,67.8,34.1,67.8"/>
	</g>
</g>
</svg>
